<svg width="162.000000" height="121.000000" viewBox="0 0 162 121" fill="none" xmlns="http://www.w3.org/2000/svg" xmlns:xlink="http://www.w3.org/1999/xlink">
	<desc>
			Created with Pixso.
	</desc>
	<defs>
		<clipPath id="clip0_265">
			<rect id="Frame" rx="0.000000" width="161.000000" height="120.000000" transform="translate(0.500000 0.500000)" fill="white" fill-opacity="0"/>
		</clipPath>
	</defs>
	<g clip-path="url(#clip0_265)">
		<path id="Vector" d="M143.09 0L18.05 0C13.23 0.03 8.63 1.16 5.25 3.14C1.87 5.12 -0.02 7.79 0.01 10.57L0.01 19.93L8.19 19.93L8.19 10.6C8.19 9.09 9.22 7.63 11.07 6.55C12.91 5.47 15.42 4.85 18.05 4.83L143.09 4.83C145.72 4.85 148.23 5.47 150.08 6.55C151.93 7.63 152.97 9.08 152.97 10.6L152.97 89.97L8.17 89.97L8.17 74.8L0 74.8L0 94.77L161.11 94.77L161.11 10.61C161.16 7.83 159.28 5.15 155.91 3.16C152.53 1.17 147.92 0.03 143.09 0Z" fill="#AAAAAA" fill-opacity="1.000000" fill-rule="nonzero"/>
		<path id="Vector" d="M8.19 27.71L0.01 27.71L0.01 67.06L8.19 67.06L8.19 27.71Z" fill="#AAAAAA" fill-opacity="1.000000" fill-rule="nonzero"/>
		<path id="Vector" d="M34.02 116.19L28.08 116.19L28.08 98.34L19.9 98.34L19.9 121L39.7 121L54.1 98.34L45.37 98.36L34.02 116.19Z" fill="#AAAAAA" fill-opacity="1.000000" fill-rule="nonzero"/>
		<path id="Vector" d="M133.04 116.19L127.1 116.19L115.75 98.34L107.02 98.34L121.43 121L141.22 121L141.22 98.34L133.06 98.34L133.04 116.19Z" fill="#AAAAAA" fill-opacity="1.000000" fill-rule="nonzero"/>
		<path id="Vector" d="M56.62 47.39C56.72 50.11 58.21 52.74 60.9 54.97C63.59 57.21 67.36 58.93 71.75 59.93C76.13 60.93 80.93 61.16 85.54 60.6C90.15 60.03 94.37 58.7 97.67 56.76C100.97 54.81 103.21 52.36 104.09 49.69C104.97 47.02 104.47 44.26 102.65 41.76C100.82 39.25 97.75 37.11 93.82 35.61C89.9 34.11 85.29 33.3 80.57 33.3C74.16 33.35 68.04 34.86 63.55 37.5C59.06 40.14 56.57 43.69 56.62 47.39ZM78.12 36.28L78.12 45.47L83.02 45.47L83.02 36.28C87.82 36.64 92.2 38.04 95.28 40.19C98.35 42.34 99.89 45.09 99.57 47.87C99.26 50.65 97.12 53.26 93.59 55.17C90.06 57.07 85.41 58.13 80.57 58.13C75.73 58.13 71.08 57.07 67.55 55.17C64.02 53.26 61.88 50.65 61.57 47.87C61.26 45.09 62.79 42.34 65.87 40.19C68.94 38.04 73.32 36.64 78.12 36.28Z" fill="#AAAAAA" fill-opacity="1.000000" fill-rule="nonzero"/>
		<path id="Vector" d="M83.02 23.7L78.12 23.7L78.12 29.2L83.02 29.2L83.02 23.7Z" fill="#AAAAAA" fill-opacity="1.000000" fill-rule="nonzero"/>
		<path id="Vector" d="M69.1 24.63L64.5 25.61L67.69 30.78L72.29 29.79L69.1 24.63Z" fill="#AAAAAA" fill-opacity="1.000000" fill-rule="nonzero"/>
		<path id="Vector" d="M52.8 30.16L58.82 34.38L62.58 32.52L56.57 28.31L52.8 30.16Z" fill="#AAAAAA" fill-opacity="1.000000" fill-rule="nonzero"/>
		<path id="Vector" d="M44.47 36.78L52.57 39.53L55.02 37.04L46.92 34.29L44.47 36.78Z" fill="#AAAAAA" fill-opacity="1.000000" fill-rule="nonzero"/>
		<path id="Vector" d="M40.48 44.69L49.7 45.65L50.55 42.8L41.33 41.85L40.48 44.69Z" fill="#AAAAAA" fill-opacity="1.000000" fill-rule="nonzero"/>
		<path id="Vector" d="M40.48 50.08L41.33 52.92L50.55 51.97L49.7 49.12L40.48 50.08Z" fill="#AAAAAA" fill-opacity="1.000000" fill-rule="nonzero"/>
		<path id="Vector" d="M55.02 57.73L52.57 55.24L44.47 57.99L46.91 60.48L55.02 57.73Z" fill="#AAAAAA" fill-opacity="1.000000" fill-rule="nonzero"/>
		<path id="Vector" d="M62.56 62.24L58.81 60.4L52.8 64.61L56.55 66.47L62.56 62.24Z" fill="#AAAAAA" fill-opacity="1.000000" fill-rule="nonzero"/>
		<path id="Vector" d="M69.1 70.14L72.29 64.98L67.69 63.99L64.48 69.16L69.1 70.14Z" fill="#AAAAAA" fill-opacity="1.000000" fill-rule="nonzero"/>
		<path id="Vector" d="M83.02 65.58L78.12 65.58L78.12 71.08L83.02 71.08L83.02 65.58Z" fill="#AAAAAA" fill-opacity="1.000000" fill-rule="nonzero"/>
		<path id="Vector" d="M92.04 70.14L96.64 69.16L93.45 63.99L88.85 64.98L92.04 70.14Z" fill="#AAAAAA" fill-opacity="1.000000" fill-rule="nonzero"/>
		<path id="Vector" d="M98.56 62.25L104.59 66.47L108.34 64.61L102.32 60.4L98.56 62.25Z" fill="#AAAAAA" fill-opacity="1.000000" fill-rule="nonzero"/>
		<path id="Vector" d="M116.67 57.99L108.58 55.24L106.12 57.74L114.22 60.49L116.67 57.99Z" fill="#AAAAAA" fill-opacity="1.000000" fill-rule="nonzero"/>
		<path id="Vector" d="M120.66 50.08L111.45 49.13L110.59 51.97L119.81 52.92L120.66 50.08Z" fill="#AAAAAA" fill-opacity="1.000000" fill-rule="nonzero"/>
		<path id="Vector" d="M119.81 41.85L110.59 42.81L111.45 45.65L120.66 44.7L119.81 41.85Z" fill="#AAAAAA" fill-opacity="1.000000" fill-rule="nonzero"/>
		<path id="Vector" d="M106.12 37.04L108.58 39.54L116.69 36.79L114.23 34.29L106.12 37.04Z" fill="#AAAAAA" fill-opacity="1.000000" fill-rule="nonzero"/>
		<path id="Vector" d="M98.58 32.52L102.33 34.38L108.34 30.17L104.59 28.31L98.58 32.52Z" fill="#AAAAAA" fill-opacity="1.000000" fill-rule="nonzero"/>
		<path id="Vector" d="M92.05 24.63L88.85 29.8L93.45 30.78L96.66 25.62L92.05 24.63Z" fill="#AAAAAA" fill-opacity="1.000000" fill-rule="nonzero"/>
	</g>
</svg>
