<svg width="162.000000" height="121.000000" viewBox="0 0 162 121" fill="none" xmlns="http://www.w3.org/2000/svg" xmlns:xlink="http://www.w3.org/1999/xlink">
	<desc>
			Created with Pixso.
	</desc>
	<defs>
		<clipPath id="clip0_292">
			<rect id="Frame" rx="0.000000" width="161.000000" height="120.000000" transform="translate(0.500000 0.500000)" fill="white" fill-opacity="0"/>
		</clipPath>
	</defs>
	<g clip-path="url(#clip0_292)">
		<path id="Vector" d="M161.99 40.85L162 20.89L130.45 20.79L130.43 25.17L149.4 25.23L115.6 41.02L115.6 19.01C115.6 19.01 115.6 19.01 115.6 19.01C115.6 18.24 115.14 17.52 114.38 17.13L82.15 0.3C81.38 -0.11 80.41 -0.11 79.64 0.3L47.61 17.13C46.86 17.52 46.4 18.24 46.4 19.01L46.4 41.02L13.3 25.22L31.57 25.17L31.55 20.78L4.19 20.87L3.65 20.61L3.49 20.87L0 20.88L0 40.85L4.95 40.85L4.95 26.21L46.39 45.99L46.39 73.34L44.22 74.35L46.39 77.99L46.39 77.99L44.22 74.35L4.94 92.7L4.94 78.45L0 78.45L0 98.42L31.54 98.52L31.56 94.14L12.59 94.08L46.39 78.29L46.39 100.3C46.39 101.07 46.85 101.79 47.61 102.18L79.84 119.01C80.22 119.22 80.66 119.32 81.09 119.32C81.53 119.32 81.97 119.21 82.35 119.01L114.38 102.19C115.13 101.79 115.59 101.08 115.59 100.3L115.59 79.03L149.58 95.26L130.42 95.32L130.44 99.7L161.98 99.6L161.99 79.64L157.04 79.64L157.04 93.84L117.78 75.1L115.59 74.06L115.59 45.98L157.04 26.62L157.04 40.86L161.99 40.86L161.99 40.85ZM80.9 4.73L108.27 19.02L81.1 33.29L53.73 19L80.9 4.73ZM51.34 75.98L65.44 69.39L60.28 66.85L51.34 71.03L51.35 22.84L78.63 37.09L78.62 113.29L51.34 99.04L51.34 75.98ZM110.65 76.67L110.65 99.05L83.57 113.28L83.57 37.09L110.65 22.86L110.65 71.69L100.34 66.77L95.56 69.47L110.65 76.67Z" fill="#AAAAAA" fill-opacity="1.000000" fill-rule="nonzero"/>
	</g>
</svg>
