<svg width="50.007324" height="50.011230" viewBox="0 0 50.0073 50.0112" fill="none" xmlns="http://www.w3.org/2000/svg" xmlns:xlink="http://www.w3.org/1999/xlink">
	<desc>
			Created with Pixso.
	</desc>
	<defs/>
	<path id="Vector" d="M35.04 35.77C35.08 35.77 35.11 35.77 35.14 35.77L38.46 35.77C38.53 35.84 38.57 35.93 38.58 36.03C39.18 37.8 39.77 39.57 40.37 41.35L42.27 47C42.27 47.08 42.33 47.16 42.38 47.28C42.42 47.17 42.46 47.09 42.48 47.02L44.58 40.83L46.21 36C46.24 35.91 46.27 35.83 46.31 35.74L49.63 35.74L49.74 35.74C49.76 35.76 49.77 35.79 49.77 35.82C49.77 40.43 49.77 45.04 49.77 49.65C49.77 49.68 49.77 49.71 49.77 49.74C49.77 49.74 49.74 49.74 49.72 49.74L47.58 49.74L47.48 49.74C47.48 49.69 47.48 49.65 47.48 49.62C47.48 49.58 47.48 49.45 47.48 49.37C47.48 45.86 47.48 42.36 47.48 38.87C47.49 38.76 47.48 38.65 47.44 38.54C47.28 38.94 47.17 39.32 47.04 39.69C46.91 40.05 46.78 40.44 46.65 40.81C46.52 41.19 46.4 41.55 46.27 41.91C46.14 42.28 46.02 42.66 45.89 43.03L45.51 44.16C45.38 44.53 45.25 44.91 45.12 45.28C44.99 45.65 44.87 46.03 44.74 46.4C44.61 46.78 44.49 47.13 44.36 47.5C44.23 47.87 44.1 48.25 43.97 48.62C43.84 49 43.72 49.37 43.59 49.74C43.4 49.78 41.73 49.79 41.21 49.74C41.13 49.68 41.12 49.58 41.1 49.5L39.83 45.9L37.45 38.9C37.45 38.82 37.39 38.75 37.36 38.67C37.29 38.67 37.32 38.74 37.32 38.77C37.32 38.8 37.32 38.94 37.32 39.02L37.32 49.47C37.32 49.57 37.32 49.66 37.32 49.77C37.28 49.78 37.25 49.79 37.21 49.8L35.11 49.8L35.05 49.8C35.03 49.76 35.02 49.71 35.01 49.67C35.01 49.6 35.01 49.54 35.01 49.47L35.01 36.09C35 35.99 35.01 35.88 35.04 35.77Z" fill="#000000" fill-opacity="1.000000" fill-rule="nonzero"/>
	<path id="Vector" d="M14.09 42.66C14.11 43.9 13.84 45.13 13.31 46.26C12.89 47.12 12.29 47.89 11.54 48.49C10.79 49.1 9.92 49.53 8.99 49.76C8.11 49.99 7.2 50.06 6.3 49.97C5.43 49.89 4.59 49.66 3.8 49.29C3.01 48.9 2.3 48.36 1.72 47.69C1.14 47.02 0.7 46.24 0.43 45.4C0.11 44.47 -0.04 43.48 0 42.5C0.02 41.62 0.19 40.75 0.5 39.93C0.89 38.83 1.56 37.86 2.45 37.1C3.34 36.35 4.42 35.85 5.56 35.66C6.89 35.38 8.28 35.47 9.56 35.93C10.51 36.26 11.38 36.81 12.08 37.53C12.79 38.25 13.33 39.12 13.64 40.08C13.87 40.74 14.01 41.42 14.05 42.11C14.07 42.32 14.09 42.54 14.09 42.66ZM11.69 42.61C11.68 42.26 11.65 41.9 11.58 41.56C11.47 40.94 11.26 40.34 10.94 39.8C10.67 39.31 10.29 38.87 9.84 38.53C9.39 38.19 8.88 37.94 8.33 37.8C7.52 37.58 6.66 37.58 5.84 37.8C4.88 38.03 4.03 38.6 3.44 39.4C3.05 39.92 2.76 40.52 2.6 41.15C2.42 41.87 2.36 42.62 2.43 43.36C2.48 43.99 2.63 44.61 2.89 45.19C3.12 45.75 3.47 46.25 3.91 46.67C4.34 47.08 4.87 47.4 5.43 47.6C6.12 47.84 6.85 47.92 7.58 47.84C8.38 47.77 9.15 47.47 9.79 46.99C10.44 46.51 10.94 45.85 11.24 45.1C11.55 44.31 11.71 43.46 11.69 42.61Z" fill="#000000" fill-opacity="1.000000" fill-rule="nonzero"/>
	<path id="Vector" d="M50 7.15C50.02 8.31 49.79 9.46 49.33 10.53C48.91 11.48 48.27 12.32 47.47 12.98C46.66 13.64 45.71 14.09 44.7 14.31C43.31 14.65 41.86 14.58 40.51 14.11C39.53 13.79 38.64 13.24 37.92 12.51C37.19 11.78 36.65 10.89 36.33 9.9C36.03 9 35.89 8.04 35.93 7.08C35.94 6.22 36.08 5.37 36.36 4.56C36.74 3.44 37.41 2.44 38.3 1.66C39.2 0.89 40.28 0.37 41.44 0.15C42.77 -0.12 44.15 -0.03 45.44 0.41C46.4 0.74 47.27 1.28 47.98 2C48.7 2.72 49.23 3.6 49.55 4.56C49.78 5.21 49.92 5.88 49.97 6.56C49.98 6.8 50 7.03 50 7.15ZM47.61 7.27C47.61 7 47.57 6.72 47.54 6.45C47.48 5.8 47.29 5.16 46.99 4.57C46.74 4.04 46.38 3.57 45.93 3.19C45.49 2.81 44.97 2.52 44.41 2.35C43.7 2.13 42.96 2.07 42.23 2.18C41.14 2.32 40.14 2.87 39.45 3.73C38.95 4.35 38.61 5.09 38.46 5.88C38.31 6.56 38.27 7.25 38.35 7.94C38.42 8.63 38.61 9.29 38.92 9.91C39.39 10.9 40.23 11.68 41.25 12.07C41.95 12.33 42.7 12.43 43.43 12.35C44.09 12.3 44.73 12.11 45.31 11.78C46.18 11.26 46.84 10.45 47.18 9.5C47.46 8.79 47.6 8.03 47.61 7.27Z" fill="#000000" fill-opacity="1.000000" fill-rule="nonzero"/>
	<path id="Vector" d="M8.26 8L8.5 8.11C9.16 8.39 9.69 8.91 9.98 9.56C10.13 9.89 10.24 10.24 10.31 10.59C10.56 11.73 10.8 12.87 11.04 14C11.04 14.09 11.08 14.18 11.09 14.28C11.05 14.29 11.01 14.3 10.97 14.31L8.77 14.31L8.7 14.31C8.7 14.26 8.66 14.2 8.64 14.14C8.44 13.19 8.24 12.24 8.04 11.29C7.99 11.04 7.92 10.79 7.85 10.57C7.84 10.51 7.82 10.46 7.79 10.41C7.65 9.99 7.4 9.61 7.05 9.33C6.71 9.05 6.29 8.88 5.85 8.83C5.58 8.79 5.31 8.77 5.04 8.77L2.96 8.77C2.88 8.75 2.79 8.77 2.72 8.81C2.69 9.06 2.72 9.31 2.72 9.59L2.72 14.29C2.67 14.3 2.63 14.31 2.59 14.32L0.44 14.32C0.41 14.32 0.37 14.32 0.34 14.32L0.34 14.17C0.33 14.12 0.33 14.08 0.34 14.03L0.34 0.59C0.34 0.49 0.34 0.39 0.34 0.28C0.4 0.28 0.47 0.28 0.54 0.28L6.19 0.28C6.85 0.28 7.5 0.38 8.13 0.58C8.5 0.7 8.85 0.87 9.17 1.08C9.9 1.55 10.43 2.27 10.67 3.11C10.89 3.89 10.89 4.72 10.67 5.5C10.54 5.99 10.31 6.44 9.99 6.82C9.67 7.21 9.28 7.53 8.83 7.75C8.75 7.8 8.66 7.84 8.57 7.89L8.26 8ZM2.72 6.66L6.34 6.66C6.61 6.65 6.87 6.59 7.11 6.5C7.42 6.39 7.69 6.21 7.9 5.97C8.12 5.73 8.28 5.44 8.35 5.12C8.42 4.87 8.44 4.62 8.41 4.36C8.39 3.97 8.26 3.6 8.03 3.28C7.81 2.97 7.49 2.73 7.13 2.59C6.84 2.47 6.53 2.41 6.21 2.4L2.99 2.4C2.91 2.39 2.82 2.4 2.74 2.43C2.71 2.68 2.69 4.93 2.74 6.47C2.7 6.5 2.71 6.57 2.72 6.66Z" fill="#000000" fill-opacity="1.000000" fill-rule="nonzero"/>
</svg>
