<svg width="162.000000" height="121.000000" viewBox="0 0 162 121" fill="none" xmlns="http://www.w3.org/2000/svg" xmlns:xlink="http://www.w3.org/1999/xlink">
	<desc>
			Created with Pixso.
	</desc>
	<defs>
		<clipPath id="clip0_289">
			<rect id="Frame" rx="0.000000" width="161.000000" height="120.000000" transform="translate(0.500000 0.500000)" fill="white" fill-opacity="0"/>
		</clipPath>
	</defs>
	<g clip-path="url(#clip0_289)">
		<path id="Vector" d="M133.19 25.65L145.33 15.59L139.85 12.5L127.66 22.57C114.9 15.97 99.41 12.17 83.3 11.68L83.3 4.84L96.74 4.84L96.74 0L62.8 0L62.8 4.84L76.25 4.84L76.25 11.68C33.87 12.97 1.52e-5 36.86 1.52e-5 66.08C-0.01 75.75 3.77 85.25 10.96 93.64L17.08 91.19C10.53 83.55 7.09 74.89 7.1 66.08C7.1 38.72 39.73 16.47 79.81 16.47C119.9 16.47 152.52 38.77 152.52 66.09C152.52 93.41 119.87 115.74 79.79 115.74C64.82 115.73 50.23 112.58 38.06 106.75L53.45 106.75L53.45 101.91L25.61 101.91L25.61 121L32.72 121L32.72 110.06C46.31 116.86 62.81 120.56 79.79 120.59C123.79 120.59 159.57 96.16 159.57 66.13C159.61 58.53 157.29 51 152.74 44.04C148.2 37.07 141.54 30.81 133.19 25.65Z" fill="#AAAAAA" fill-opacity="1.000000" fill-rule="nonzero"/>
		<path id="Vector" d="M83.3 66.08L83.34 66.08L83.34 25.91L76.23 25.91L76.23 63.66L31.39 63.66L31.39 68.5L83.3 68.5L83.3 66.08Z" fill="#AAAAAA" fill-opacity="1.000000" fill-rule="nonzero"/>
	</g>
</svg>
