<svg width="64.000000" height="64.000000" viewBox="0 0 64 64" fill="none" xmlns="http://www.w3.org/2000/svg" xmlns:xlink="http://www.w3.org/1999/xlink">
	<desc>
			Created with Pixso.
	</desc>
	<defs>
		<clipPath id="clip0_370">
			<rect id="Frame" rx="0.000000" width="63.000000" height="63.000000" transform="translate(0.500000 0.500000)" fill="white" fill-opacity="0"/>
		</clipPath>
	</defs>
	<g clip-path="url(#clip0_370)">
		<path id="Vector" d="M44.13 27.94L46.2 31.61L47.22 31.01L45.13 27.31L46.46 27.66L46.75 26.5L43.51 25.64L42.66 28.96L43.8 29.26L44.13 27.94Z" fill="#AAAAAA" fill-opacity="1.000000" fill-rule="nonzero"/>
		<path id="Vector" d="M39.39 30.77L41.45 34.44L42.47 33.84L40.38 30.14L41.71 30.49L42.01 29.33L38.76 28.47L37.92 31.79L39.05 32.09L39.39 30.77Z" fill="#AAAAAA" fill-opacity="1.000000" fill-rule="nonzero"/>
		<path id="Vector" d="M41.65 37.51L49.93 32.56L49.34 31.52L41.06 36.47L41.65 37.51Z" fill="#AAAAAA" fill-opacity="1.000000" fill-rule="nonzero"/>
		<path id="Vector" d="M44.51 43.49L58.67 34.78L39.34 2L20.88 13.35L38.28 42.86C34.13 43.97 31.22 48 31.57 52.51C31.95 57.34 35.91 61.01 40.57 61.01C40.81 61.01 41.05 61 41.29 60.98C46.26 60.58 49.97 56.12 49.58 51.05C49.32 47.68 47.3 44.87 44.51 43.49ZM38.67 4.74L55.99 34.1L42.02 42.68C41.49 42.59 40.95 42.55 40.39 42.56L23.56 14.03L38.67 4.74ZM41.14 58.99C37.24 59.3 33.83 56.33 33.52 52.35C33.21 48.38 36.13 44.9 40.02 44.58C40.21 44.56 40.4 44.56 40.59 44.56C42.27 44.56 43.88 45.16 45.17 46.29C46.61 47.54 47.48 49.29 47.63 51.21C47.94 55.18 45.03 58.67 41.14 58.99Z" fill="#AAAAAA" fill-opacity="1.000000" fill-rule="nonzero"/>
		<path id="Vector" d="M40.42 49.82C39.36 49.91 38.57 50.86 38.65 51.94C38.73 52.97 39.58 53.75 40.58 53.75C40.63 53.75 40.68 53.75 40.73 53.75C41.79 53.66 42.58 52.71 42.5 51.63C42.41 50.55 41.48 49.73 40.42 49.82ZM40.64 52.55C40.23 52.59 39.86 52.27 39.82 51.84C39.79 51.42 40.1 51.05 40.52 51.02C40.54 51.02 40.56 51.01 40.58 51.01C40.97 51.01 41.3 51.32 41.33 51.72C41.36 52.15 41.05 52.52 40.64 52.55Z" fill="#AAAAAA" fill-opacity="1.000000" fill-rule="nonzero"/>
		<path id="Vector" d="M33.71 43.55L34.34 43.01L13.01 6.35C11.96 4.54 10.11 3.38 8.06 3.23L3.13 2.89L3 4.88L7.92 5.22C9.34 5.32 10.61 6.12 11.33 7.37L31.83 42.6C29.18 45.25 27.78 49 28.08 52.8L30.03 52.64C29.76 49.19 31.14 45.8 33.71 43.55Z" fill="#AAAAAA" fill-opacity="1.000000" fill-rule="nonzero"/>
		<path id="Vector" d="M60.44 37.93L49.13 44.82L50.26 46.45L61.45 39.64L60.44 37.93Z" fill="#AAAAAA" fill-opacity="1.000000" fill-rule="nonzero"/>
	</g>
</svg>
