<svg width="64.000000" height="64.000000" viewBox="0 0 64 64" fill="none" xmlns="http://www.w3.org/2000/svg" xmlns:xlink="http://www.w3.org/1999/xlink">
	<desc>
			Created with Pixso.
	</desc>
	<defs>
		<clipPath id="clip0_380">
			<rect id="Frame" rx="0.000000" width="63.000000" height="63.000000" transform="translate(0.500000 0.500000)" fill="white" fill-opacity="0"/>
		</clipPath>
	</defs>
	<g clip-path="url(#clip0_380)">
		<path id="Vector" d="M47.85 26.32L41.13 26.32L5.07 26.31C3.35 26.31 1.95 24.89 1.95 23.13C1.95 21.37 3.35 19.94 5.07 19.94L45.58 19.94L45.58 17.95L5.07 17.95C2.27 17.95 0 20.27 0 23.13L0 58.81C0 60.39 1.25 61.67 2.8 61.67L47.85 61.67C49.39 61.67 50.65 60.39 50.65 58.81L50.65 38.02L50.65 29.18C50.65 27.6 49.39 26.32 47.85 26.32ZM48.7 58.81C48.7 59.29 48.31 59.68 47.85 59.68L2.8 59.68C2.33 59.68 1.95 59.29 1.95 58.81L1.95 27.2C2.58 27.71 3.33 28.06 4.14 28.22L4.14 28.31L5.07 28.31L41.13 28.31L47.85 28.31C48.32 28.31 48.7 28.7 48.7 29.18L48.7 38.02L48.7 58.81Z" fill="#AAAAAA" fill-opacity="1.000000" fill-rule="nonzero"/>
		<path id="Vector" d="M47.68 22.15L6.5 22.15L6.5 23.35L47.68 23.35L47.68 22.15Z" fill="#AAAAAA" fill-opacity="1.000000" fill-rule="nonzero"/>
		<path id="Vector" d="M59.14 8.37C53.01 2.11 43.24 1.78 36.72 7.37L37.37 2.25L35.43 2L34.34 10.63L42.8 11.74L43.05 9.77L37.78 9.07C43.53 3.96 52.29 4.19 57.76 9.78C63.47 15.61 63.47 25.11 57.76 30.94L59.14 32.35C65.61 25.74 65.61 14.98 59.14 8.37Z" fill="#AAAAAA" fill-opacity="1.000000" fill-rule="nonzero"/>
	</g>
</svg>
