<svg width="350.000000" height="27.000000" viewBox="0 0 350 27" fill="none" xmlns="http://www.w3.org/2000/svg" xmlns:xlink="http://www.w3.org/1999/xlink">
	<desc>
			Created with Pixso.
	</desc>
	<defs>
		<clipPath id="clip0_302">
			<rect id="Frame" rx="0.000000" width="20.000000" height="19.000000" transform="translate(0.500000 0.500000)" fill="white" fill-opacity="0"/>
		</clipPath>
		<clipPath id="clip0_304">
			<rect id="Frame" rx="0.000000" width="20.000000" height="19.000000" transform="translate(24.500000 0.500000)" fill="white" fill-opacity="0"/>
		</clipPath>
		<clipPath id="clip0_306">
			<rect id="Frame" rx="0.000000" width="20.000000" height="19.000000" transform="translate(48.500000 0.500000)" fill="white" fill-opacity="0"/>
		</clipPath>
		<clipPath id="clip0_308">
			<rect id="Frame" rx="0.000000" width="20.000000" height="19.000000" transform="translate(72.500000 0.500000)" fill="white" fill-opacity="0"/>
		</clipPath>
		<clipPath id="clip0_310">
			<rect id="Frame" rx="0.000000" width="20.000000" height="19.000000" transform="translate(96.500000 0.500000)" fill="white" fill-opacity="0"/>
		</clipPath>
	</defs>
	<g clip-path="url(#clip0_302)">
		<path id="Vector" d="M10.69 0.16L13.5 6.48L20.51 7.38C20.8 7.45 20.88 7.75 20.66 7.97L15.64 12.66L16.97 19.58C16.97 19.87 16.67 20.1 16.45 19.95L10.47 16.53L4.35 19.95C4.05 20.1 3.83 19.87 3.83 19.58L5.23 12.81L0.07 7.97C-0.08 7.75 0 7.45 0.29 7.38L7.08 6.63L10.1 0.16C10.25 -0.06 10.55 -0.06 10.69 0.16Z" fill="#FFF4CB" fill-opacity="1.000000" fill-rule="evenodd"/>
	</g>
	<g clip-path="url(#clip0_304)">
		<path id="Vector" d="M34.69 0.16L37.5 6.48L44.51 7.38C44.8 7.45 44.88 7.75 44.66 7.97L39.64 12.66L40.97 19.58C40.97 19.87 40.67 20.1 40.45 19.95L34.47 16.53L28.35 19.95C28.05 20.1 27.83 19.87 27.83 19.58L29.23 12.81L24.07 7.97C23.92 7.75 24 7.45 24.29 7.38L31.08 6.63L34.1 0.16C34.25 -0.06 34.55 -0.06 34.69 0.16Z" fill="#FFF4CB" fill-opacity="1.000000" fill-rule="evenodd"/>
	</g>
	<g clip-path="url(#clip0_306)">
		<path id="Vector" d="M58.69 0.16L61.5 6.48L68.51 7.38C68.8 7.45 68.88 7.75 68.66 7.97L63.64 12.66L64.97 19.58C64.97 19.87 64.67 20.1 64.45 19.95L58.47 16.53L52.35 19.95C52.05 20.1 51.83 19.87 51.83 19.58L53.23 12.81L48.07 7.97C47.92 7.75 48 7.45 48.29 7.38L55.08 6.63L58.1 0.16C58.25 -0.06 58.55 -0.06 58.69 0.16Z" fill="#FFF4CB" fill-opacity="1.000000" fill-rule="evenodd"/>
	</g>
	<g clip-path="url(#clip0_308)">
		<path id="Vector" d="M82.69 0.16L85.5 6.48L92.51 7.38C92.8 7.45 92.88 7.75 92.66 7.97L87.64 12.66L88.97 19.58C88.97 19.87 88.67 20.1 88.45 19.95L82.47 16.53L76.35 19.95C76.05 20.1 75.83 19.87 75.83 19.58L77.23 12.81L72.07 7.97C71.92 7.75 72 7.45 72.29 7.38L79.08 6.63L82.1 0.16C82.25 -0.06 82.55 -0.06 82.69 0.16Z" fill="#FFF4CB" fill-opacity="1.000000" fill-rule="evenodd"/>
	</g>
	<g clip-path="url(#clip0_310)">
		<path id="Vector" d="M106.7 0.16L109.5 6.48L116.51 7.38C116.8 7.45 116.88 7.75 116.66 7.97L111.64 12.66L112.97 19.58C112.97 19.87 112.67 20.1 112.45 19.95L106.47 16.53L100.35 19.95C100.05 20.1 99.83 19.87 99.83 19.58L101.23 12.81L96.07 7.97C95.92 7.75 96 7.45 96.29 7.38L103.08 6.63L106.1 0.16C106.25 -0.06 106.55 -0.06 106.7 0.16Z" fill="#FFF4CB" fill-opacity="1.000000" fill-rule="evenodd"/>
	</g>
</svg>
